<?xml version="1.0" standalone="no"?>
<svg xmlns="http://www.w3.org/2000/svg" viewBox="0 0 97.001 112.006" width="97.001" height="112.006"><polygon fill="none" stroke="#72edca" stroke-width="3" points="95.501,28.7515 95.501,83.25450000000001 48.5005,110.506 1.5,83.25450000000001 1.5,28.7515 48.5005,1.5"></polygon><g fill="#0019ff" color="#0019ff" transform="translate(26.500500000000002 22.5) scale(0.8461539)"><svg width="52.0" height="47.0" x="0.0" y="0.0" viewBox="0 0 52 47"><path fill="currentColor" fill-rule="evenodd" d="M48.193 38.37a8.28 8.28 0 0 1-5.751 2.766 8.297 8.297 0 0 1-6.022-2.11 10.943 10.943 0 0 1-.604-.59c1.525-3.49 2.35-7.694 2.35-12.104 0-1.54-.104-3.055-.3-4.524 3.891 1.05 7.871 3.177 9.673 4.789a8.283 8.283 0 0 1 2.766 5.751 8.28 8.28 0 0 1-2.112 6.022m-29.49 2.713c-1.44-2.106-2.568-4.836-3.246-7.949 9.388 5.439 17.944 1.354 20.743-.312-.656 3.178-1.78 5.97-3.225 8.126-6.945 2.398-12.128.983-14.271.135m-3.485-2.058c-3.427 3.066-8.71 2.772-11.775-.655a8.28 8.28 0 0 1-2.11-6.022 8.284 8.284 0 0 1 2.765-5.751c1.736-1.553 5.625-3.69 9.624-4.775a34.302 34.302 0 0 0-.299 4.51c0 4.425.83 8.64 2.365 12.138-.203.21-.395.397-.57.555m.388-20.16c1.786.934 5.276 2.37 9.89 2.37 3.055 0 6.601-.632 10.465-2.454.569 2.316.885 4.863.886 7.536-11.23 5.745-19.741 1.54-22.105.103v-.09c0-2.645.307-5.168.864-7.465M25.796 7.082c3.346 0 6.347 2.605 8.375 6.709-9.167 4.553-15.893.6-16.77.037 2.028-4.124 5.038-6.746 8.395-6.746M51.62 32.275a9.585 9.585 0 0 0-3.203-6.66c-2.315-2.073-6.86-4.263-10.768-5.22-.566-3.163-1.586-6.065-3.004-8.474-1.055-1.793-2.277-3.219-3.607-4.248l1.395-4.209A1.734 1.734 0 0 0 32.312 0a1.736 1.736 0 0 0-1.131 3.05L29.9 6.91c-1.3-.75-2.682-1.145-4.107-1.145-1.35 0-2.664.357-3.903 1.033L20.648 3.05a1.735 1.735 0 1 0-1.252.414l1.348 4.066c-1.406 1.036-2.695 2.51-3.8 4.39-1.42 2.412-2.44 5.317-3.006 8.483-3.863.955-8.45 3.181-10.72 5.21a9.593 9.593 0 0 0-3.203 6.66 9.591 9.591 0 0 0 2.446 6.975 9.629 9.629 0 0 0 7.2 3.213 9.618 9.618 0 0 0 6.73-2.732c.177.345.359.684.552 1.012 2.335 3.97 5.479 6.156 8.85 6.156 3.37 0 6.513-2.186 8.85-6.156.197-.337.386-.687.568-1.044a9.615 9.615 0 0 0 6.761 2.764 9.636 9.636 0 0 0 7.202-3.214 9.588 9.588 0 0 0 2.446-6.973"></path></svg></g><path fill="#0019ff" fill-rule="nonzero" d="M0.06 17.56L1.04 17.47Q1.29 13.61 1.29 9.32Q1.29 5.04 1.04 2.74L1.04 2.74L0.08 2.66Q0.03 2.21 0.03 1.89Q0.03 1.57 0.11 1.09L0.11 1.09Q1.09 1.12 2.38 1.12Q3.67 1.12 4.62 1.09L4.62 1.09Q4.70 1.51 4.70 1.83Q4.70 2.16 4.65 2.66L4.65 2.66L3.58 2.74Q3.39 5.38 3.39 9.98Q3.39 14.59 3.58 16.97L3.58 16.97Q4.45 17.05 6.12 17.05Q7.78 17.05 8.65 16.91L8.65 16.91L8.74 15.01Q9.21 14.92 9.59 14.92Q9.97 14.92 10.30 14.95L10.30 14.95Q10.39 17.08 10.56 19.10L10.56 19.10L10.42 19.24Q9.10 19.10 5.07 19.10Q1.04 19.10 0.08 19.12L0.08 19.12Q0 18.70 0 18.38Q0 18.06 0.06 17.56L0.06 17.56ZM16.24 3.02L16.24 3.02Q16.04 5.21 16.04 10.04Q16.04 14.87 16.27 17.47L16.27 17.47L17.89 17.64Q17.95 18.09 17.95 18.35Q17.95 18.62 17.86 19.12L17.86 19.12Q16.86 19.10 14.97 19.10Q13.08 19.10 12.21 19.12L12.21 19.12Q12.12 18.70 12.12 18.42Q12.12 18.14 12.18 17.64L12.18 17.64L13.72 17.47Q13.94 14.48 13.94 9.87Q13.94 5.26 13.69 3.02L13.69 3.02Q12.60 3.05 10.67 3.22L10.67 3.22L10.58 5.29Q10.14 5.38 9.74 5.38Q9.35 5.38 9.02 5.35L9.02 5.35Q8.93 3.05 8.76 1.09L8.76 1.09L8.90 0.95Q10.98 1.20 15.54 1.20Q20.10 1.20 21.25 0.95L21.25 0.95L21.39 1.09Q21.20 3.25 21.14 5.07L21.14 5.07Q20.80 5.10 20.43 5.10Q20.05 5.10 19.57 5.01L19.57 5.01L19.49 3.14Q18.31 3.08 16.24 3.02ZM25.45 4.31L25.45 4.31Q25.03 3.86 24.89 3.28L24.89 3.28Q25.42 2.91 26.24 2.38Q27.05 1.85 27.41 1.57L27.41 1.57Q28.56 0.78 29.48 0L29.48 0Q30.07 0.50 30.32 0.97Q30.58 1.43 30.60 2.21L30.60 2.21Q28.92 2.88 25.45 4.31Z" transform="translate(33.199, 70.27)"></path></svg>